<svg width="21" height="21" viewBox="0 0 21 21" fill="none" xmlns="http://www.w3.org/2000/svg">
<path d="M16.1875 18.8125C16.1875 19.075 16.0125 19.25 15.75 19.25H5.25C4.9875 19.25 4.8125 19.075 4.8125 18.8125V2.1875C4.8125 1.925 4.9875 1.75 5.25 1.75H10.9375V0.875H5.25C4.50625 0.875 3.9375 1.44375 3.9375 2.1875V18.8125C3.9375 19.5562 4.50625 20.125 5.25 20.125H15.75C16.4937 20.125 17.0625 19.5562 17.0625 18.8125V7H16.1875V18.8125Z" fill="#063F73"/>
<path d="M14.4375 3.5V0.875H13.5625V3.5H10.9375V4.375H13.5625V7H14.4375V4.375H17.0625V3.5H14.4375Z" fill="#063F73"/>
<path d="M11.8125 8.3125H7.4375V9.1875H11.8125V8.3125Z" fill="#063F73"/>
<path d="M13.5625 11.8125H7.4375V12.6875H13.5625V11.8125Z" fill="#063F73"/>
<path d="M11.8125 15.3125H7.4375V16.1875H11.8125V15.3125Z" fill="#063F73"/>
</svg>
