<svg width="20" height="20" viewBox="0 0 20 20" fill="none" xmlns="http://www.w3.org/2000/svg">
<g clip-path="url(#clip0_6_52)">
<path d="M17.796 3.45416L14.4627 0.120825C14.4237 0.0822078 14.3776 0.0516556 14.3268 0.0309204C14.276 0.0101851 14.2217 -0.000325333 14.1668 -8.2945e-06H3.3335C3.00198 -8.2945e-06 2.68403 0.131688 2.44961 0.366108C2.21519 0.600529 2.0835 0.918471 2.0835 1.24999V18.75C2.0835 19.0815 2.21519 19.3995 2.44961 19.6339C2.68403 19.8683 3.00198 20 3.3335 20H16.6668C16.9984 20 17.3163 19.8683 17.5507 19.6339C17.7851 19.3995 17.9168 19.0815 17.9168 18.75V3.74999C17.9171 3.69516 17.9066 3.6408 17.8859 3.59003C17.8652 3.53927 17.8346 3.49309 17.796 3.45416ZM14.5835 1.42083L16.496 3.33333H15.0002C14.8897 3.33333 14.7837 3.28943 14.7055 3.21129C14.6274 3.13315 14.5835 3.02717 14.5835 2.91666V1.42083ZM17.0835 18.75C17.0835 18.8605 17.0396 18.9665 16.9615 19.0446C16.8833 19.1228 16.7773 19.1667 16.6668 19.1667H3.3335C3.22299 19.1667 3.11701 19.1228 3.03887 19.0446C2.96073 18.9665 2.91683 18.8605 2.91683 18.75V1.24999C2.91683 1.13948 2.96073 1.0335 3.03887 0.955364C3.11701 0.877224 3.22299 0.833325 3.3335 0.833325H13.7502V2.91666C13.7502 3.24818 13.8819 3.56612 14.1163 3.80054C14.3507 4.03496 14.6686 4.16666 15.0002 4.16666H17.0835V18.75Z" fill="black"/>
<path d="M14.9998 7.5H6.6665V8.33333H14.9998V7.5Z" fill="black"/>
<path d="M15 10H5V10.8333H15V10Z" fill="black"/>
<path d="M15 12.5H5V13.3333H15V12.5Z" fill="black"/>
<path d="M11.6667 15H5V15.8333H11.6667V15Z" fill="black"/>
<path d="M14.9998 15H14.1665V15.8333H14.9998V15Z" fill="black"/>
<path d="M13.3333 15H12.5V15.8333H13.3333V15Z" fill="black"/>
</g>
<defs>
<clipPath id="clip0_6_52">
<rect width="20" height="20" fill="white"/>
</clipPath>
</defs>
</svg>
