<svg width="15" height="15" viewBox="0 0 15 15" fill="none" xmlns="http://www.w3.org/2000/svg">
<path d="M11.677 6.16071C11.677 6.23326 11.6491 6.29743 11.5933 6.35323L7.69266 10.2539C7.63686 10.3097 7.57268 10.3376 7.50014 10.3376C7.42759 10.3376 7.36342 10.3097 7.30762 10.2539L3.40695 6.35323C3.35114 6.29743 3.32324 6.23326 3.32324 6.16071C3.32324 6.08817 3.35114 6.02399 3.40695 5.96819L3.82547 5.54966C3.88128 5.49386 3.94545 5.46596 4.018 5.46596C4.09054 5.46596 4.15472 5.49386 4.21052 5.54966L7.50014 8.83928L10.7898 5.54966C10.8456 5.49386 10.9097 5.46596 10.9823 5.46596C11.0548 5.46596 11.119 5.49386 11.1748 5.54966L11.5933 5.96819C11.6491 6.02399 11.677 6.08817 11.677 6.16071Z" fill="black"/>
</svg>
